<?xml version="1.0" standalone="no"?>
<!DOCTYPE svg PUBLIC "-//W3C//DTD SVG 20010904//EN"
 "http://www.w3.org/TR/2001/REC-SVG-20010904/DTD/svg10.dtd">
<svg version="1.0" xmlns="http://www.w3.org/2000/svg"
 width="512.000000pt" height="512.000000pt" viewBox="0 0 512.000000 512.000000"
 preserveAspectRatio="xMidYMid meet">

<g transform="translate(0.000000,512.000000) scale(0.100000,-0.100000)"
fill="#000000" stroke="none">
<path d="M2513 5107 c-12 -7 -213 -266 -447 -577 -387 -514 -426 -568 -426
-603 0 -94 33 -107 270 -107 l180 0 0 -74 0 -74 -162 -56 c-90 -31 -390 -133
-668 -226 -357 -121 -511 -177 -526 -193 -42 -44 -404 -658 -404 -685 0 -51
32 -87 101 -112 35 -12 110 -40 167 -62 l102 -39 0 -805 c0 -863 0 -857 50
-884 34 -18 1791 -610 1811 -610 20 0 1772 590 1808 609 52 28 51 18 51 885
l0 804 78 30 c42 16 117 44 166 62 94 36 126 66 126 121 0 26 -371 654 -408
691 -13 13 -1325 468 -1349 468 -2 0 -3 34 -3 75 l0 75 180 0 c237 0 270 13
270 107 0 35 -39 89 -426 603 -234 311 -435 570 -447 577 -12 7 -33 12 -47 12
-14 0 -35 -5 -47 -12z m357 -664 c168 -223 307 -409 308 -414 2 -5 -61 -9
-145 -9 l-149 0 -27 -28 -27 -28 0 -317 0 -317 -270 0 -270 0 0 317 0 317 -27
28 -27 28 -149 0 c-84 0 -147 4 -145 9 5 14 612 820 618 820 3 0 142 -183 310
-406z m-757 -1266 c10 -16 29 -32 43 -37 40 -16 783 -13 814 3 46 23 60 69 60
199 l0 117 480 -162 c264 -89 480 -164 480 -167 0 -3 -322 -113 -715 -246
l-714 -240 -715 240 c-394 133 -716 243 -716 246 0 3 215 78 478 166 l477 162
5 -127 c4 -99 9 -133 23 -154z m-507 -423 c418 -141 762 -259 766 -262 8 -8
-397 -458 -409 -455 -23 5 -1369 516 -1375 522 -6 5 249 449 258 451 1 0 343
-115 760 -256z m2801 33 c73 -122 129 -225 125 -228 -6 -6 -1354 -518 -1375
-522 -12 -3 -417 447 -409 455 4 3 243 86 532 183 289 97 629 212 755 255 127
43 232 79 235 79 3 0 65 -99 137 -222z m-1949 -2042 l-3 -503 -775 262 -775
261 -3 728 c-1 400 0 727 3 727 3 0 243 -90 534 -200 493 -186 565 -209 604
-194 9 3 105 105 214 226 l198 220 3 -512 c1 -281 1 -738 0 -1015z m406 1306
c108 -121 204 -222 212 -225 41 -16 114 8 598 191 287 108 527 198 534 201 9
3 12 -145 12 -721 0 -420 -4 -728 -9 -731 -5 -3 -349 -121 -765 -261 -416
-141 -763 -258 -771 -261 -13 -5 -15 111 -15 1010 0 559 1 1016 3 1016 2 0 92
-99 201 -219z"/>
</g>
</svg>
